<?xml version="1.0" encoding="UTF-8"?>
<svg id="uuid-ff978bef-24a9-4699-8247-9cbe2314cebe" data-name="Layer 1" xmlns="http://www.w3.org/2000/svg" viewBox="0 0 209.68 31.64">
  <path d="m1.06,30.17V1.47h5.94c3.48,0,6.31,2.01,6.31,6.31v16.07c0,4.31-2.83,6.31-6.31,6.31H1.06ZM11.89,7.79c0-3.44-2.17-4.88-4.88-4.88H2.5v25.83h4.51c2.71,0,4.88-1.43,4.88-4.88V7.79Z" style="fill: #a77e22;"/>
  <path d="m1.06,30.17V1.47h5.94c3.48,0,6.31,2.01,6.31,6.31v16.07c0,4.31-2.83,6.31-6.31,6.31H1.06ZM11.89,7.79c0-3.44-2.17-4.88-4.88-4.88H2.5v25.83h4.51c2.71,0,4.88-1.43,4.88-4.88V7.79Z" style="fill: none; stroke: #a77e22; stroke-linecap: round; stroke-linejoin: round; stroke-width: 2.13px;"/>
  <polygon points="18.69 30.17 18.69 1.47 29.76 1.47 29.76 2.91 20.13 2.91 20.13 15.08 28.57 15.08 28.57 16.56 20.13 16.56 20.13 28.73 29.76 28.73 29.76 30.17 18.69 30.17" style="fill: #a77e22;"/>
  <polygon points="18.69 30.17 18.69 1.47 29.76 1.47 29.76 2.91 20.13 2.91 20.13 15.08 28.57 15.08 28.57 16.56 20.13 16.56 20.13 28.73 29.76 28.73 29.76 30.17 18.69 30.17" style="fill: none; stroke: #a77e22; stroke-linecap: round; stroke-linejoin: round; stroke-width: 2.13px;"/>
  <path d="m52.07,28.49v-11.93h-5.21v-1.48h6.64v14.47c-2.09.66-4.18,1.03-6.31,1.03-3.49,0-6.35-2.01-6.35-6.36V7.42c0-4.35,2.87-6.35,6.35-6.35,1.8,0,3.65.29,5.54.78v1.52c-1.97-.53-3.85-.86-5.54-.86-2.75,0-4.92,1.48-4.92,4.92v16.81c0,3.44,2.17,4.92,4.92,4.92,1.56,0,3.24-.25,4.88-.66" style="fill: #c89828;"/>
  <path d="m52.07,28.49v-11.93h-5.21v-1.48h6.64v14.47c-2.09.66-4.18,1.03-6.31,1.03-3.49,0-6.35-2.01-6.35-6.36V7.42c0-4.35,2.87-6.35,6.35-6.35,1.8,0,3.65.29,5.54.78v1.52c-1.97-.53-3.85-.86-5.54-.86-2.75,0-4.92,1.48-4.92,4.92v16.81c0,3.44,2.17,4.92,4.92,4.92,1.56,0,3.24-.25,4.88-.66Z" style="fill: none; stroke: #c89828; stroke-linecap: round; stroke-linejoin: round; stroke-width: 2.13px;"/>
  <path d="m58.88,7.42c0-4.35,2.87-6.35,6.35-6.35s6.31,2.01,6.31,6.35v16.81c0,4.35-2.83,6.35-6.31,6.35s-6.35-2.01-6.35-6.35V7.42Zm11.23,0c0-3.44-2.17-4.92-4.88-4.92s-4.92,1.48-4.92,4.92v16.81c0,3.44,2.17,4.92,4.92,4.92s4.88-1.48,4.88-4.92V7.42Z" style="fill: #c89828;"/>
  <path d="m58.88,7.42c0-4.35,2.87-6.35,6.35-6.35s6.31,2.01,6.31,6.35v16.81c0,4.35-2.83,6.35-6.31,6.35s-6.35-2.01-6.35-6.35V7.42Zm11.23,0c0-3.44-2.17-4.92-4.88-4.92s-4.92,1.48-4.92,4.92v16.81c0,3.44,2.17,4.92,4.92,4.92s4.88-1.48,4.88-4.92V7.42Z" style="fill: none; stroke: #c89828; stroke-linecap: round; stroke-linejoin: round; stroke-width: 2.13px;"/>
  <path d="m87.74,1.47h1.44v22.75c0,4.35-2.58,6.36-6.11,6.36s-6.15-2.01-6.15-6.36V1.47h1.43v22.75c0,3.44,2.01,4.92,4.71,4.92s4.67-1.47,4.67-4.92V1.47Z" style="fill: #c89828;"/>
  <path d="m87.74,1.47h1.44v22.75c0,4.35-2.58,6.36-6.11,6.36s-6.15-2.01-6.15-6.36V1.47h1.43v22.75c0,3.44,2.01,4.92,4.71,4.92s4.67-1.47,4.67-4.92V1.47Z" style="fill: none; stroke: #c89828; stroke-linecap: round; stroke-linejoin: round; stroke-width: 2.13px;"/>
  <path d="m94.55,30.17V1.47h5.94c3.48,0,6.31,2.01,6.31,6.31v16.07c0,4.31-2.83,6.31-6.31,6.31h-5.94Zm10.82-22.38c0-3.44-2.17-4.88-4.88-4.88h-4.51v25.83h4.51c2.71,0,4.88-1.43,4.88-4.88V7.79Z" style="fill: #c89828;"/>
  <path d="m94.55,30.17V1.47h5.94c3.48,0,6.31,2.01,6.31,6.31v16.07c0,4.31-2.83,6.31-6.31,6.31h-5.94Zm10.82-22.38c0-3.44-2.17-4.88-4.88-4.88h-4.51v25.83h4.51c2.71,0,4.88-1.43,4.88-4.88V7.79Z" style="fill: none; stroke: #c89828; stroke-linecap: round; stroke-linejoin: round; stroke-width: 2.13px;"/>
  <polygon points="112.18 30.17 112.18 1.47 123.25 1.47 123.25 2.91 113.61 2.91 113.61 15.08 122.06 15.08 122.06 16.56 113.61 16.56 113.61 28.73 123.25 28.73 123.25 30.17 112.18 30.17" style="fill: #c89828;"/>
  <polygon points="112.18 30.17 112.18 1.47 123.25 1.47 123.25 2.91 113.61 2.91 113.61 15.08 122.06 15.08 122.06 16.56 113.61 16.56 113.61 28.73 123.25 28.73 123.25 30.17 112.18 30.17" style="fill: none; stroke: #c89828; stroke-linecap: round; stroke-linejoin: round; stroke-width: 2.13px;"/>
  <polygon points="138.29 30.17 128.78 5.9 128.78 30.17 127.35 30.17 127.35 1.47 128.7 1.47 138.17 25.74 138.17 1.47 139.6 1.47 139.6 30.17 138.29 30.17" style="fill: #c89828;"/>
  <polygon points="138.29 30.17 128.78 5.9 128.78 30.17 127.35 30.17 127.35 1.47 128.7 1.47 138.17 25.74 138.17 1.47 139.6 1.47 139.6 30.17 138.29 30.17" style="fill: none; stroke: #c89828; stroke-linecap: round; stroke-linejoin: round; stroke-width: 2.13px;"/>
  <polygon points="165.85 30.17 159.49 16.56 155.06 16.56 155.06 30.17 153.59 30.17 153.59 1.47 155.06 1.47 155.06 15.08 159.49 15.08 165.81 1.47 167.36 1.47 160.68 15.82 167.4 30.17 165.85 30.17" style="fill: #a77e22;"/>
  <polygon points="165.85 30.17 159.49 16.56 155.06 16.56 155.06 30.17 153.59 30.17 153.59 1.47 155.06 1.47 155.06 15.08 159.49 15.08 165.81 1.47 167.36 1.47 160.68 15.82 167.4 30.17 165.85 30.17" style="fill: none; stroke: #a77e22; stroke-linecap: round; stroke-linejoin: round; stroke-width: 2.13px;"/>
  <path d="m171.14,7.42c0-4.35,2.87-6.35,6.35-6.35s6.31,2.01,6.31,6.35v16.81c0,4.35-2.83,6.35-6.31,6.35s-6.35-2.01-6.35-6.35V7.42Zm11.23,0c0-3.44-2.17-4.92-4.88-4.92s-4.92,1.48-4.92,4.92v16.81c0,3.44,2.17,4.92,4.92,4.92s4.88-1.48,4.88-4.92V7.42Z" style="fill: #a77e22;"/>
  <path d="m171.14,7.42c0-4.35,2.87-6.35,6.35-6.35s6.31,2.01,6.31,6.35v16.81c0,4.35-2.83,6.35-6.31,6.35s-6.35-2.01-6.35-6.35V7.42Zm11.23,0c0-3.44-2.17-4.92-4.88-4.92s-4.92,1.48-4.92,4.92v16.81c0,3.44,2.17,4.92,4.92,4.92s4.88-1.48,4.88-4.92V7.42Z" style="fill: none; stroke: #a77e22; stroke-linecap: round; stroke-linejoin: round; stroke-width: 2.13px;"/>
  <path d="m189.18,7.42c0-4.35,2.87-6.35,6.35-6.35s6.31,2.01,6.31,6.35v16.81c0,4.35-2.83,6.35-6.31,6.35s-6.35-2.01-6.35-6.35V7.42Zm11.23,0c0-3.44-2.17-4.92-4.88-4.92s-4.92,1.48-4.92,4.92v16.81c0,3.44,2.17,4.92,4.92,4.92s4.88-1.48,4.88-4.92V7.42Z" style="fill: #a77e22;"/>
  <path d="m189.18,7.42c0-4.35,2.87-6.35,6.35-6.35s6.31,2.01,6.31,6.35v16.81c0,4.35-2.83,6.35-6.31,6.35s-6.35-2.01-6.35-6.35V7.42Zm11.23,0c0-3.44-2.17-4.92-4.88-4.92s-4.92,1.48-4.92,4.92v16.81c0,3.44,2.17,4.92,4.92,4.92s4.88-1.48,4.88-4.92V7.42Z" style="fill: none; stroke: #a77e22; stroke-linecap: round; stroke-linejoin: round; stroke-width: 2.13px;"/>
  <rect x="207.18" y="1.47" width="1.44" height="28.7" style="fill: #a77e22;"/>
  <rect x="207.18" y="1.47" width="1.44" height="28.7" style="fill: none; stroke: #a77e22; stroke-linecap: round; stroke-linejoin: round; stroke-width: 2.13px;"/>
</svg>