<?xml version="1.0" encoding="UTF-8"?>
<svg id="uuid-ce1544c9-06db-4b27-9783-c93e93a0ce98" data-name="Hourglass" xmlns="http://www.w3.org/2000/svg" viewBox="0 0 800 800">
  <path d="m493.57,361.17l129.3-179.89c11.18-15.53,17.25-34.04,17.25-53.02v-56.19h37.36V0H122.52v72.08h37.36v56.19c0,18.98,6.07,37.48,17.25,53.02l129.3,179.89c4.63,6.46,6.99,13.84,7,21.35v34.94c-.02,7.51-2.38,14.89-7,21.35l-129.3,179.91c-11.18,15.53-17.25,34.04-17.25,53v56.2h-37.36v72.08h554.95v-72.08h-37.36v-56.2c0-18.96-6.07-37.46-17.25-53l-129.3-179.91c-4.63-6.46-7-13.84-7-21.35v-34.94c0-7.51,2.37-14.89,7-21.35Zm110.51,359.54H195.93v-49c0-11.3,3.58-22.37,10.46-31.97l129.3-179.91c8.92-12.4,13.79-27.2,13.79-42.38v-34.94c0-15.18-4.87-30-13.79-42.38l-129.28-179.89c-6.9-9.62-10.48-20.68-10.48-31.99v-48.98h408.15v48.98c-.02,11.31-3.58,22.37-10.48,31.99l-129.3,179.89c-8.9,12.38-13.77,27.2-13.77,42.38v34.94c0,15.18,4.87,29.98,13.77,42.38l129.32,179.91c6.89,9.6,10.45,20.67,10.47,31.97v49h0Z" style="fill: #453408;"/>
  <path d="m369.17,363.95h61.67c2.61-12.99,7.95-25.37,15.91-36.43l92.95-129.33h-279.39l92.96,129.33c7.95,11.06,13.28,23.44,15.91,36.43Z" style="fill: #453408;"/>
  <path d="m385.55,596.23l-102.84,102.86h234.58l-102.84-102.86c-7.98-7.97-20.91-7.97-28.9,0Z" style="fill: #453408;"/>
  <path d="m399.43,387.49c-8.89,0-16.1,7.21-16.1,16.11s7.21,16.09,16.1,16.09,16.11-7.21,16.11-16.09-7.22-16.11-16.11-16.11Z" style="fill: #453408;"/>
  <path d="m399.43,452.36c-8.89,0-16.1,7.21-16.1,16.09s7.21,16.11,16.1,16.11,16.11-7.21,16.11-16.11-7.22-16.09-16.11-16.09Z" style="fill: #453408;"/>
  <path d="m399.43,519.13c-8.89,0-16.1,7.21-16.1,16.11s7.21,16.11,16.1,16.11,16.11-7.23,16.11-16.11-7.22-16.11-16.11-16.11Z" style="fill: #453408;"/>
</svg>
