<?xml version="1.0" encoding="UTF-8"?>
<svg id="uuid-db2a61db-5cf7-4477-9d3f-20ac1af594b2" data-name="group" xmlns="http://www.w3.org/2000/svg" viewBox="0 0 800 800">
  <path d="m94.82,223.24c0-18.28,7.26-35.8,20.18-48.73,12.92-12.92,30.45-20.18,48.73-20.18s35.8,7.26,48.73,20.18c12.92,12.92,20.18,30.45,20.18,48.73s-7.26,35.8-20.18,48.73c-12.92,12.92-30.45,20.18-48.73,20.18s-35.8-7.26-48.73-20.18c-12.92-12.92-20.18-30.45-20.18-48.73Zm-9.84,194.06c-12.31,13.78-19.69,32.12-19.69,52.05s7.38,38.27,19.69,52.05v-104.23.12Zm177.69-60.67c-36.55,32.36-59.56,79.74-59.56,132.41,0,42.21,14.77,80.97,39.38,111.36v26.46c0,21.78-17.6,39.38-39.38,39.38h-78.76c-21.78,0-39.38-17.6-39.38-39.38v-32.98c-46.52-22.15-78.76-69.53-78.76-124.53,0-76.17,61.65-137.82,137.82-137.82h39.38c29.53,0,56.85,9.23,79.25,24.98v.12Zm294.84,270.23v-26.46c24.61-30.39,39.38-69.16,39.38-111.36,0-52.67-23.01-100.04-59.56-132.53,22.39-15.75,49.71-24.98,79.25-24.98h39.38c76.17,0,137.82,61.65,137.82,137.82,0,55.01-32.24,102.38-78.76,124.53v32.98c0,21.78-17.6,39.38-39.38,39.38h-78.76c-21.78,0-39.38-17.6-39.38-39.38Zm9.84-403.62c0-18.28,7.26-35.8,20.19-48.73,12.92-12.92,30.45-20.18,48.73-20.18s35.8,7.26,48.73,20.18c12.92,12.92,20.19,30.45,20.19,48.73s-7.26,35.8-20.19,48.73c-12.92,12.92-30.45,20.18-48.73,20.18s-35.81-7.26-48.73-20.18c-12.92-12.92-20.19-30.45-20.19-48.73Zm147.67,194.06v104.23c12.31-13.91,19.69-32.12,19.69-52.05s-7.38-38.27-19.69-52.05v-.12ZM400,154.33c20.89,0,40.92,8.3,55.69,23.07,14.77,14.77,23.07,34.8,23.07,55.69s-8.3,40.92-23.07,55.69c-14.77,14.77-34.8,23.07-55.69,23.07s-40.92-8.3-55.69-23.07c-14.77-14.77-23.07-34.8-23.07-55.69s8.3-40.92,23.07-55.69c14.77-14.77,34.8-23.07,55.69-23.07Zm-98.45,334.71c0,19.94,7.38,38.15,19.69,52.05v-104.23c-12.31,13.91-19.69,32.12-19.69,52.05v.12Zm177.2-52.05v104.23c12.31-13.91,19.69-32.12,19.69-52.05s-7.38-38.27-19.69-52.05v-.12Zm78.76,52.05c0,55.01-32.24,102.38-78.76,124.53v52.67c0,21.78-17.6,39.38-39.38,39.38h-78.76c-21.78,0-39.38-17.6-39.38-39.38v-52.67c-46.52-22.15-78.76-69.53-78.76-124.53,0-76.17,61.65-137.82,137.82-137.82h39.38c76.17,0,137.82,61.65,137.82,137.82Z" style="fill: #fff;"/>
</svg>