<?xml version="1.0" encoding="UTF-8"?>
<svg id="uuid-b6d27233-73e6-4e3e-8689-8387e0b6da49" data-name="Pin" xmlns="http://www.w3.org/2000/svg" viewBox="0 0 800 800">
  <path d="m371.4,786.33l.18.18.12.12c16.43,12.45,39.15,12.45,55.58,0l.12-.12.18-.18.73-.55c3.93-3.02,7.79-6.13,11.58-9.32,45.44-38.3,87.19-80.78,124.69-126.89,67.1-83.01,139.62-203.67,139.62-341.1C704.22,140.18,567.79,3.75,399.5,3.75S94.78,140.18,94.78,308.47c0,137.43,72.52,258.1,139.68,341.1,37.5,46.1,79.25,88.58,124.69,126.89,3.8,3.16,7.64,6.27,11.52,9.32l.73.61v-.06Zm28.1-386.45c50.49,0,91.42-40.93,91.42-91.42s-40.93-91.42-91.42-91.42-91.42,40.93-91.42,91.42,40.93,91.42,91.42,91.42Z" style="fill: #453408; fill-rule: evenodd;"/>
</svg>
