<svg width="13" height="16" viewBox="0 0 13 16" fill="none" xmlns="http://www.w3.org/2000/svg">
<path d="M1.19531 0C0.642187 0 0.195312 0.446875 0.195312 1C0.195312 1.55313 0.642187 2 1.19531 2V2.34375C1.19531 3.66875 1.72344 4.94063 2.66094 5.87813L4.77969 8L2.66094 10.1219C1.72344 11.0594 1.19531 12.3313 1.19531 13.6562V14C0.642187 14 0.195312 14.4469 0.195312 15C0.195312 15.5531 0.642187 16 1.19531 16H2.19531H10.1953H11.1953C11.7484 16 12.1953 15.5531 12.1953 15C12.1953 14.4469 11.7484 14 11.1953 14V13.6562C11.1953 12.3313 10.6672 11.0594 9.72969 10.1219L7.61094 8L9.73281 5.87813C10.6703 4.94063 11.1984 3.66875 11.1984 2.34375V2C11.7516 2 12.1984 1.55313 12.1984 1C12.1984 0.446875 11.7516 0 11.1984 0H10.1953H2.19531H1.19531ZM9.19531 13.6562V14H3.19531V13.6562C3.19531 12.8594 3.51094 12.0969 4.07344 11.5344L6.19531 9.41562L8.31719 11.5375C8.87969 12.1 9.19531 12.8625 9.19531 13.6594V13.6562Z" fill="#857242"/>
</svg>
