<?xml version="1.0" encoding="UTF-8"?>
<svg id="uuid-2ccae527-9c01-4a33-ba25-2a448def8797" data-name="age" xmlns="http://www.w3.org/2000/svg" viewBox="0 0 800 800">
  <path d="m682.77,18.68c-18.41,0-33.33,14.92-33.33,33.33v33.33h-33.33c-18.41,0-33.33,14.92-33.33,33.33s14.92,33.33,33.33,33.33h33.33v33.33c0,18.41,14.92,33.33,33.33,33.33s33.33-14.92,33.33-33.33v-33.33h33.33c18.41,0,33.33-14.92,33.33-33.33s-14.92-33.33-33.33-33.33h-33.33v-33.33c0-18.41-14.92-33.33-33.33-33.33Z" style="fill: #fff;"/>
  <path d="m731.66,305.91c-5.66-17.52-25.51-25.3-42.44-18.08-16.93,7.23-24.7,26.83-19.4,44.45,16.71,55.52,17.03,114.96.52,171.05-19.66,66.79-61.96,124.65-119.63,163.65-57.67,39.01-127.12,56.72-196.43,50.11-69.31-6.62-134.15-37.15-183.4-86.36-49.25-49.21-79.84-114.03-86.51-183.33-6.67-69.3,10.99-138.77,49.94-196.47,38.96-57.7,96.78-100.05,163.56-119.76,56.07-16.56,115.51-16.29,171.05.38,17.63,5.29,37.22-2.5,44.44-19.44,7.21-16.94-.59-36.78-18.11-42.42-69.95-22.55-145.34-23.63-216.32-2.67-81.67,24.12-152.4,75.91-200.05,146.49C31.22,284.09,9.63,369.06,17.79,453.82c8.16,84.77,45.57,164.05,105.81,224.24,60.24,60.19,139.55,97.54,224.33,105.63,84.77,8.09,169.72-13.58,240.26-61.28,70.54-47.71,122.27-118.48,146.32-200.18,20.9-70.99,19.76-146.39-2.85-216.32Z" style="fill: #fff;"/>
  <path d="m482.77,318.68c0-36.82-29.85-66.67-66.67-66.67h-66.67c-36.82,0-66.67,29.85-66.67,66.67v50c0,27.61,22.39,50,50,50-27.61,0-50,22.39-50,50v50c0,36.82,29.85,66.67,66.67,66.67h66.67c36.82,0,66.67-29.85,66.67-66.67v-50c0-27.61-22.39-50-50-50,27.61,0,50-22.39,50-50v-50Zm-66.67,33.33c0-18.41-14.92-33.33-33.33-33.33s-33.33,14.92-33.33,33.33,14.92,33.33,33.33,33.33,33.33-14.92,33.33-33.33Zm0,133.33c0,18.41-14.92,33.33-33.33,33.33s-33.33-14.92-33.33-33.33,14.92-33.33,33.33-33.33,33.33,14.92,33.33,33.33Z" style="fill: #fff; fill-rule: evenodd;"/>
</svg>