<?xml version="1.0" encoding="UTF-8"?>
<svg id="uuid-887f8325-a5e8-4b92-9fe5-d6942dd91fec" data-name="Layer 3" xmlns="http://www.w3.org/2000/svg" viewBox="0 0 800 800">
  <path d="m765.35,442.98v128.95c0,55.86-134.71,128.95-300.88,128.95s-300.88-73.09-300.88-128.95v-107.46" style="fill: none; stroke: #fff; stroke-linecap: round; stroke-linejoin: round; stroke-width: 38.1px;"/>
  <path d="m176.23,475.6c37.17,49.35,152.16,95.63,288.25,95.63,166.17,0,300.88-69,300.88-128.34,0-33.3-42.42-69.8-109-95.42" style="fill: none; stroke: #fff; stroke-linecap: round; stroke-linejoin: round; stroke-width: 38.1px;"/>
  <path d="m636.41,228.07v128.95c0,55.86-134.71,128.95-300.88,128.95S34.65,412.87,34.65,357.02v-128.95" style="fill: none; stroke: #fff; stroke-linecap: round; stroke-linejoin: round; stroke-width: 38.1px;"/>
  <path d="m335.53,356.31c166.17,0,300.88-69,300.88-128.34S501.7,99.12,335.53,99.12,34.65,168.62,34.65,227.97s134.71,128.34,300.88,128.34Z" style="fill: none; stroke: #fff; stroke-linecap: round; stroke-linejoin: round; stroke-width: 38.1px;"/>
</svg>