<svg width="21" height="14" viewBox="0 0 21 14" fill="none" xmlns="http://www.w3.org/2000/svg">
<path d="M2.4453 1.75012C2.4453 1.28599 2.62967 0.840874 2.95786 0.512685C3.28605 0.184497 3.73117 0.00012207 4.1953 0.00012207C4.65943 0.00012207 5.10455 0.184497 5.43273 0.512685C5.76092 0.840874 5.9453 1.28599 5.9453 1.75012C5.9453 2.21425 5.76092 2.65937 5.43273 2.98756C5.10455 3.31575 4.65943 3.50012 4.1953 3.50012C3.73117 3.50012 3.28605 3.31575 2.95786 2.98756C2.62967 2.65937 2.4453 2.21425 2.4453 1.75012ZM2.1953 6.67825C1.8828 7.02825 1.6953 7.49387 1.6953 8.00012C1.6953 8.50637 1.8828 8.972 2.1953 9.322V6.67512V6.67825ZM6.7078 5.13762C5.77967 5.9595 5.1953 7.16262 5.1953 8.50012C5.1953 9.572 5.5703 10.5564 6.1953 11.3282V12.0001C6.1953 12.5532 5.74842 13.0001 5.1953 13.0001H3.1953C2.64217 13.0001 2.1953 12.5532 2.1953 12.0001V11.1626C1.01405 10.6001 0.195297 9.397 0.195297 8.00012C0.195297 6.06575 1.76092 4.50012 3.6953 4.50012H4.6953C5.4453 4.50012 6.13905 4.7345 6.7078 5.1345V5.13762ZM14.1953 12.0001V11.3282C14.8203 10.5564 15.1953 9.572 15.1953 8.50012C15.1953 7.16262 14.6109 5.9595 13.6828 5.1345C14.2515 4.7345 14.9453 4.50012 15.6953 4.50012H16.6953C18.6297 4.50012 20.1953 6.06575 20.1953 8.00012C20.1953 9.397 19.3765 10.6001 18.1953 11.1626V12.0001C18.1953 12.5532 17.7484 13.0001 17.1953 13.0001H15.1953C14.6422 13.0001 14.1953 12.5532 14.1953 12.0001ZM14.4453 1.75012C14.4453 1.28599 14.6297 0.840874 14.9579 0.512685C15.286 0.184497 15.7312 0.00012207 16.1953 0.00012207C16.6594 0.00012207 17.1045 0.184497 17.4327 0.512685C17.7609 0.840874 17.9453 1.28599 17.9453 1.75012C17.9453 2.21425 17.7609 2.65937 17.4327 2.98756C17.1045 3.31575 16.6594 3.50012 16.1953 3.50012C15.7312 3.50012 15.286 3.31575 14.9579 2.98756C14.6297 2.65937 14.4453 2.21425 14.4453 1.75012ZM18.1953 6.67825V9.32512C18.5078 8.972 18.6953 8.5095 18.6953 8.00325C18.6953 7.497 18.5078 7.03137 18.1953 6.68137V6.67825ZM10.1953 0.00012207C10.7257 0.00012207 11.2344 0.210836 11.6095 0.585909C11.9846 0.960981 12.1953 1.46969 12.1953 2.00012C12.1953 2.53056 11.9846 3.03926 11.6095 3.41434C11.2344 3.78941 10.7257 4.00012 10.1953 4.00012C9.66486 4.00012 9.15616 3.78941 8.78108 3.41434C8.40601 3.03926 8.1953 2.53056 8.1953 2.00012C8.1953 1.46969 8.40601 0.960981 8.78108 0.585909C9.15616 0.210836 9.66486 0.00012207 10.1953 0.00012207ZM7.6953 8.50012C7.6953 9.00637 7.8828 9.46887 8.1953 9.822V7.17512C7.8828 7.52825 7.6953 7.99075 7.6953 8.497V8.50012ZM12.1953 7.17825V9.82512C12.5078 9.472 12.6953 9.0095 12.6953 8.50325C12.6953 7.997 12.5078 7.53137 12.1953 7.18137V7.17825ZM14.1953 8.50012C14.1953 9.897 13.3765 11.1001 12.1953 11.6626V13.0001C12.1953 13.5532 11.7484 14.0001 11.1953 14.0001H9.1953C8.64217 14.0001 8.1953 13.5532 8.1953 13.0001V11.6626C7.01405 11.1001 6.1953 9.897 6.1953 8.50012C6.1953 6.56575 7.76092 5.00012 9.6953 5.00012H10.6953C12.6297 5.00012 14.1953 6.56575 14.1953 8.50012Z" fill="#857242"/>
</svg>
