<?xml version="1.0" encoding="UTF-8"?>
<svg preserveAspectRatio="xMidYMid slice" xmlns="http://www.w3.org/2000/svg" id="Capa_1" height="190px" viewBox="0 0 512 512" width="190px">
  <g>
    <path d="m467 60h-26v45c0 24.813-20.187 45-45 45-8.284 0-15-6.716-15-15s6.716-15 15-15c8.271 0 15-6.729 15-15v-45h-30v-15c0-8.271 6.729-15 15-15s15 6.729 15 15v15h30v-15c0-24.813-20.187-45-45-45s-45 20.187-45 45v15h-50v45c0 24.813-20.187 45-45 45-8.284 0-15-6.716-15-15s6.716-15 15-15c8.271 0 15-6.729 15-15v-45h-30v-15c0-8.271 6.729-15 15-15s15 6.729 15 15v15h30v-15c0-24.813-20.187-45-45-45s-45 20.187-45 45v15h-50v45c0 24.813-20.187 45-45 45-8.284 0-15-6.716-15-15s6.716-15 15-15c8.271 0 15-6.729 15-15v-45h-30v-15c0-8.271 6.729-15 15-15s15 6.729 15 15v15h30v-15c0-24.813-20.187-45-45-45s-45 20.187-45 45v15h-26c-24.813 0-45 20.187-45 45v67h512v-67c0-24.813-20.187-45-45-45z"></path>
    <path d="m176 442c46.869 0 85-38.131 85-85s-38.131-85-85-85-85 38.131-85 85 38.131 85 85 85zm-15-135c0-8.284 6.716-15 15-15s15 6.716 15 15v35h25c8.284 0 15 6.716 15 15s-6.716 15-15 15h-40c-8.284 0-15-6.716-15-15z"></path>
    <path d="m0 467c0 24.813 20.187 45 45 45h422c24.813 0 45-20.187 45-45v-265h-512zm336-185h100c8.284 0 15 6.716 15 15s-6.716 15-15 15h-100c-8.284 0-15-6.716-15-15s6.716-15 15-15zm0 60h100c8.284 0 15 6.716 15 15s-6.716 15-15 15h-100c-8.284 0-15-6.716-15-15s6.716-15 15-15zm0 60h100c8.284 0 15 6.716 15 15s-6.716 15-15 15h-100c-8.284 0-15-6.716-15-15s6.716-15 15-15zm-160-160c63.411 0 115 51.589 115 115s-51.589 115-115 115-115-51.589-115-115 51.589-115 115-115z"></path>
  </g>
</svg>
