<svg width="18" height="16" viewBox="0 0 18 16" fill="none" xmlns="http://www.w3.org/2000/svg">
<path d="M9.9071 0.562222C9.71896 0.208148 9.41673 0.0207407 9.00044 0C8.60488 0.0207407 8.30266 0.208148 8.09377 0.562222L6.09377 4.68667L1.59377 5.37556C1.19821 5.43778 0.938215 5.6563 0.813771 6.03111C0.687845 6.42667 0.770808 6.77037 1.06266 7.06222L4.31377 10.2822L3.53155 14.8444C3.49007 15.24 3.62562 15.563 3.93821 15.8133C4.27155 16.0415 4.62562 16.0622 5.00044 15.8756L9.00044 13.7511L13.0315 15.8756C13.3856 16.0622 13.7293 16.0415 14.0627 15.8133C14.396 15.563 14.5315 15.24 14.4693 14.8444L13.7182 10.2822L16.9693 7.06222C17.2404 6.77037 17.3234 6.42667 17.2182 6.03111C17.073 5.6563 16.8027 5.43778 16.4071 5.37556L11.9071 4.68667L9.9071 0.562222Z" fill="#EFAB00"/>
</svg>
