<svg width="20" height="16" viewBox="0 0 20 16" fill="none" xmlns="http://www.w3.org/2000/svg">
<path d="M10.0004 11.7511L10.8449 12.1867L13.5004 13.6244L12.9693 10.5622L12.8138 9.68667L13.4693 9.03111L15.656 6.87556L12.656 6.43778L11.7515 6.28222L11.3449 5.46889L10.0004 2.71778V11.7511ZM15.4693 14.8444C15.5315 15.24 15.396 15.563 15.0627 15.8133C14.7293 16.0415 14.3753 16.0622 14.0004 15.8756L10.0004 13.7511L6.00044 15.8756C5.62562 16.0622 5.27155 16.0415 4.93821 15.8133C4.62562 15.563 4.49007 15.24 4.53155 14.8444L5.31377 10.2822L2.06266 7.06222C1.77081 6.77037 1.68784 6.42667 1.81377 6.03111C1.93821 5.6563 2.19822 5.43778 2.59377 5.37556L7.09377 4.68667L9.09377 0.562222C9.30266 0.208148 9.60488 0.0207407 10.0004 0C10.4167 0.0207407 10.719 0.208148 10.9071 0.562222L12.9071 4.68667L17.4071 5.37556C17.8027 5.43778 18.073 5.6563 18.2182 6.03111C18.3234 6.42667 18.2404 6.77037 17.9693 7.06222L14.7182 10.2822L15.4693 14.8444Z" fill="#EFAB00"/>
</svg>
